<?xml version="1.0" encoding="UTF-8"?>
<svg id="Calque_2" data-name="Calque 2" xmlns="http://www.w3.org/2000/svg" viewBox="0 0 542.32 124.53">
  <defs>
    <style>
      .cls-1 {
        fill: #1a1a1a;
      }
    </style>
  </defs>
  <g id="Calque_1-2" data-name="Calque 1">
    <g>
      <g>
        <path class="cls-1" d="M110.86,51.95c3.63,3.5,5.44,8.5,5.44,15v.51c0,6.92-1.86,12.28-5.57,16.07-3.71,3.8-8.86,6.44-15.44,7.91-6.58,1.48-14.85,2.26-24.8,2.34h-5.32l-65.18-.13V0h76.31c9.79.08,17.59,2.11,23.41,6.07,5.82,3.97,8.73,9.58,8.73,16.83v.51c0,5.48-1.14,9.96-3.42,13.41-2.28,3.46-5.69,6.03-10.25,7.72,7.09,1.43,12.45,3.9,16.07,7.4ZM80.61,20.31c-1.44-1.39-3.31-2.26-5.63-2.59-2.32-.34-5.63-.51-9.93-.51H24.93v19.74l30.37.25h9.74c4.56,0,7.89-.13,10-.38,2.11-.25,3.92-1.1,5.44-2.53,1.52-1.43,2.28-3.84,2.28-7.21,0-3.12-.72-5.38-2.15-6.77ZM80.74,74.47c2.53-.38,4.55-1.37,6.07-2.97s2.28-4.18,2.28-7.72-.76-5.97-2.28-7.53c-1.52-1.56-3.54-2.51-6.07-2.85-2.53-.34-6.37-.51-11.52-.51H24.93v21.89c18.31,0,31.34.09,39.1.25h5.19c5.15,0,8.99-.19,11.52-.57Z"/>
        <path class="cls-1" d="M151.99,0v72.89h61.76v20.75h-87.95V0h26.2Z"/>
        <g>
          <polygon class="cls-1" points="401.22 62.1 338.57 .21 312.38 .21 312.38 93.86 338.57 93.86 338.57 31.85 401.22 93.86 427.54 93.86 427.54 .21 401.22 .21 401.22 62.1"/>
          <polygon class="cls-1" points="487.4 43.11 540.42 .21 506 .21 465.76 34.26 465.76 .21 439.56 .21 439.56 93.86 465.76 93.86 465.76 52.99 508.28 93.86 542.32 93.86 487.4 43.11"/>
        </g>
      </g>
      <g>
        <path class="cls-1" d="M10.48,116.99c2.57.44,3.84,1.63,3.84,3.6,0,2.46-2.04,3.95-6.57,3.95-3.63,0-6.06-.97-7.32-2.94l2.92-.76c.28.41.8.78,1.54,1.15.76.35,1.7.53,2.82.53.78,0,1.54-.11,2.39-.34.85-.23,1.43-.74,1.43-1.45,0-.92-.73-1.28-2.16-1.51l-4.68-.76c-2.32-.37-3.47-1.56-3.47-3.6,0-2.21,2.25-3.47,5.95-3.47,1.97,0,3.49.28,4.57.85,1.08.55,1.84,1.24,2.27,2.04l-2.85.71c-.58-.9-1.81-1.74-3.81-1.74-2.11,0-3.31.62-3.31,1.59,0,.9.67,1.19,2,1.4l4.43.74Z"/>
        <path class="cls-1" d="M23.29,113.89v10.27h-2.75v-10.27h-4.98v-2.13h12.7v2.13h-4.98Z"/>
        <path class="cls-1" d="M41.09,117.77c-.62.62-1.4,1.03-2.3,1.2l3.51,5.19h-3.17l-3.28-5.12h-3.22v5.12h-2.76v-12.4h7.55c1.35,0,2.44.34,3.31,1.03.87.67,1.31,1.54,1.31,2.6,0,.94-.32,1.74-.94,2.37ZM36.64,113.82h-4.02v3.17h4.04c1.67,0,2.5-.55,2.5-1.67s-.89-1.51-2.52-1.51Z"/>
        <path class="cls-1" d="M49.09,111.76h2.87l6.18,12.4h-3.06l-1.4-2.89h-6.43l-1.38,2.89h-2.87l6.09-12.4ZM48.22,119.2h4.45l-2.25-4.78h-.04l-2.16,4.78Z"/>
        <path class="cls-1" d="M66.39,113.89v10.27h-2.75v-10.27h-4.98v-2.13h12.7v2.13h-4.98Z"/>
        <path class="cls-1" d="M72.96,124.16v-12.4h11.87v2.09h-9.11v2.89h8.18v2.05h-8.18v3.21h9.57v2.16h-12.33ZM77.69,110.87l1.45-2.13h3.22l-2.32,2.13h-2.36Z"/>
        <path class="cls-1" d="M98.76,115.23c-.96-1.22-2.41-1.84-4.38-1.84-1.42,0-2.6.39-3.54,1.17-.94.78-1.4,1.91-1.4,3.4,0,1.4.46,2.5,1.38,3.31.92.81,2.09,1.22,3.53,1.22s2.55-.34,3.38-1.03c.85-.69,1.29-1.4,1.35-2.13v-.05h-4.16v-1.93h6.71v6.8h-2.52v-1.47h-.05c-1.26,1.2-2.83,1.81-4.73,1.81s-3.84-.53-5.35-1.54c-1.49-1.01-2.46-2.8-2.46-5,0-1.36.37-2.53,1.1-3.54.74-1.01,1.7-1.77,2.87-2.25,1.19-.5,2.48-.74,3.9-.74,1.98,0,3.76.44,4.89,1.13,1.15.69,1.86,1.35,2.36,2.07l-2.87.6Z"/>
        <path class="cls-1" d="M104.05,124.16v-12.4h2.76v12.4h-2.76Z"/>
        <path class="cls-1" d="M109.12,124.16v-12.4h11.87v2.09h-9.11v2.89h8.18v2.05h-8.18v3.21h9.57v2.16h-12.33Z"/>
        <path class="cls-1" d="M140.29,124.16l-1.38-1.2c-1.17.96-2.76,1.43-4.8,1.43-1.61,0-2.96-.32-4.02-.96-1.04-.66-1.58-1.56-1.58-2.71,0-1.58,1.35-2.89,3.56-3.67-.94-.97-1.4-1.82-1.4-2.55,0-.81.39-1.49,1.15-2.04.78-.55,1.79-.81,3.03-.81,1.1,0,2.02.28,2.78.83s1.15,1.24,1.15,2.04c0,1.13-1.05,2.32-2.82,3.01l2.75,2.36c.23-.55.34-1.15.34-1.81h2.67c-.12,1.28-.53,2.39-1.22,3.35l3.21,2.73h-3.42ZM133.68,118.44c-1.58.62-2.5,1.22-2.5,2.23,0,.57.3,1.01.89,1.33.6.32,1.35.48,2.21.48,1.06,0,2.07-.32,3.01-.96l-3.61-3.08ZM134.44,116.22c1.17-.39,1.75-.96,1.75-1.68,0-.58-.62-1.01-1.42-1.01s-1.45.41-1.45.9c.07.8.48,1.26,1.12,1.79Z"/>
        <path class="cls-1" d="M165.68,120.83c-1.22,2.21-3.63,3.68-7.39,3.68-2.27,0-4.15-.58-5.65-1.75-1.49-1.19-2.23-2.78-2.23-4.8,0-1.91.76-3.53,1.84-4.46.55-.48,1.17-.89,1.88-1.2,1.42-.66,2.78-.89,4.15-.89,1.7,0,3.19.32,4.48.97,1.29.66,2.23,1.51,2.78,2.59l-2.71.83c-.69-1.36-2.13-2.41-4.54-2.41-1.58,0-2.8.41-3.67,1.24-.87.81-1.31,1.93-1.31,3.33s.46,2.46,1.36,3.3c.92.83,2.11,1.24,3.58,1.24,2.16,0,3.7-.8,4.64-2.37l2.78.71Z"/>
        <path class="cls-1" d="M170.78,112.26c1.44-.64,2.78-.85,4.11-.85,1.4,0,2.76.21,4.2.87.73.32,1.38.71,1.93,1.19,1.12.94,1.88,2.55,1.88,4.48,0,4.85-4.39,6.57-7.99,6.57s-7.9-1.81-7.9-6.55c.02-3.01,1.72-4.84,3.77-5.7ZM171.28,121.27c.9.81,2.11,1.22,3.61,1.22s2.78-.39,3.7-1.19c.94-.8,1.4-1.91,1.4-3.35s-.46-2.52-1.38-3.33c-.9-.83-2.14-1.24-3.72-1.24s-2.89.43-3.72,1.29c-.83.85-1.26,1.95-1.26,3.28,0,1.4.46,2.5,1.36,3.31Z"/>
        <path class="cls-1" d="M197.88,124.16v-3.15c0-2.41.04-4.2.09-5.39h-.04c-.3.76-.81,1.84-1.52,3.24l-2.64,5.3h-2.13l-2.39-4.68c-.81-1.59-1.42-2.89-1.81-3.86h-.04c.05,1.54.09,3.3.09,5.3v3.24h-2.75v-12.4h3.22l2.87,5.47c.99,1.9,1.61,3.19,1.86,3.92h.04c.19-.6.83-1.95,1.91-4.04l2.76-5.35h3.21v12.4h-2.75Z"/>
        <path class="cls-1" d="M216.05,124.16v-3.15c0-2.41.04-4.2.09-5.39h-.04c-.3.76-.81,1.84-1.52,3.24l-2.64,5.3h-2.13l-2.39-4.68c-.81-1.59-1.42-2.89-1.81-3.86h-.04c.05,1.54.09,3.3.09,5.3v3.24h-2.75v-12.4h3.22l2.87,5.47c.99,1.9,1.61,3.19,1.86,3.92h.04c.19-.6.83-1.95,1.91-4.04l2.76-5.35h3.21v12.4h-2.75Z"/>
        <path class="cls-1" d="M227.78,124.46c-4.41,0-6.61-1.56-6.61-4.69v-8.01h2.71v7.87c0,1.79,1.52,2.94,3.92,2.94,2.57,0,4.02-1.06,4.02-2.89v-7.92h2.73v7.99c0,3.28-2.29,4.71-6.77,4.71Z"/>
        <path class="cls-1" d="M247.66,124.16l-4.94-5.31c-1.72-1.84-2.75-2.99-3.12-3.47h-.04c.07.96.11,2.92.11,5.88v2.91h-2.73v-12.4h2.52l4.96,5.37c1.67,1.81,2.69,2.94,3.08,3.4h.04c-.07-1.22-.11-2.99-.11-5.31v-3.45h2.75v12.4h-2.52Z"/>
        <path class="cls-1" d="M252.47,124.16v-12.4h2.76v12.4h-2.76Z"/>
        <path class="cls-1" d="M272.36,120.83c-1.22,2.21-3.63,3.68-7.39,3.68-2.27,0-4.15-.58-5.65-1.75-1.49-1.19-2.23-2.78-2.23-4.8,0-1.91.76-3.53,1.84-4.46.55-.48,1.17-.89,1.88-1.2,1.42-.66,2.78-.89,4.15-.89,1.7,0,3.19.32,4.48.97,1.29.66,2.23,1.51,2.78,2.59l-2.71.83c-.69-1.36-2.13-2.41-4.54-2.41-1.58,0-2.8.41-3.67,1.24-.87.81-1.31,1.93-1.31,3.33s.46,2.46,1.36,3.3c.92.83,2.11,1.24,3.58,1.24,2.16,0,3.7-.8,4.64-2.37l2.78.71Z"/>
        <path class="cls-1" d="M279.07,111.76h2.87l6.18,12.4h-3.06l-1.4-2.89h-6.43l-1.38,2.89h-2.87l6.09-12.4ZM278.2,119.2h4.45l-2.25-4.78h-.04l-2.16,4.78Z"/>
        <path class="cls-1" d="M296.37,113.89v10.27h-2.75v-10.27h-4.98v-2.13h12.7v2.13h-4.98Z"/>
        <path class="cls-1" d="M302.94,124.16v-12.4h2.76v12.4h-2.76Z"/>
        <path class="cls-1" d="M311.33,112.26c1.44-.64,2.78-.85,4.11-.85,1.4,0,2.76.21,4.2.87.73.32,1.38.71,1.93,1.19,1.12.94,1.88,2.55,1.88,4.48,0,4.85-4.39,6.57-7.99,6.57s-7.9-1.81-7.9-6.55c.02-3.01,1.72-4.84,3.77-5.7ZM311.83,121.27c.9.81,2.11,1.22,3.61,1.22s2.78-.39,3.7-1.19c.94-.8,1.4-1.91,1.4-3.35s-.46-2.52-1.38-3.33c-.9-.83-2.14-1.24-3.72-1.24s-2.89.43-3.72,1.29c-.83.85-1.26,1.95-1.26,3.28,0,1.4.46,2.5,1.36,3.31Z"/>
        <path class="cls-1" d="M336.02,124.16l-4.94-5.31c-1.72-1.84-2.75-2.99-3.12-3.47h-.04c.07.96.11,2.92.11,5.88v2.91h-2.73v-12.4h2.52l4.96,5.37c1.67,1.81,2.69,2.94,3.08,3.4h.04c-.07-1.22-.11-2.99-.11-5.31v-3.45h2.75v12.4h-2.51Z"/>
      </g>
      <g>
        <path class="cls-1" d="M439.09,123.15c-.74.69-2.04,1.03-3.9,1.03h-7.39v-12.4h7.56c2.78,0,4.15,1.17,4.15,3.22,0,1.22-.74,2.11-1.93,2.52,1.58.35,2.64,1.43,2.64,2.85,0,1.17-.37,2.09-1.13,2.78ZM434.12,113.87h-3.54v2.83h3.51c1.86,0,2.66-.39,2.66-1.38s-.87-1.45-2.62-1.45ZM434.59,118.69h-4.02v3.44h3.81c1.15,0,1.95-.16,2.37-.48.43-.34.64-.78.64-1.33,0-1.08-.94-1.63-2.8-1.63Z"/>
        <path class="cls-1" d="M441.9,124.18v-12.4h2.76v10.24h7.64v2.16h-10.4Z"/>
        <path class="cls-1" d="M452.21,120.42v-1.97h5.65v1.97h-5.65Z"/>
        <path class="cls-1" d="M470.53,124.18l-4.94-5.31c-1.72-1.84-2.75-2.99-3.12-3.47h-.04c.07.96.11,2.92.11,5.88v2.91h-2.73v-12.4h2.52l4.96,5.37c1.67,1.81,2.69,2.94,3.08,3.4h.04c-.07-1.22-.11-2.99-.11-5.31v-3.45h2.75v12.4h-2.51Z"/>
        <path class="cls-1" d="M484.96,124.18l-4.59-6.18-2.45,2.16v4.02h-2.76v-12.4h2.76v5.47l6.09-5.47h3.33l-5,4.59,5.79,7.81h-3.19Z"/>
        <path class="cls-1" d="M489.38,124.18v-2.14h2.98v2.14h-2.98Z"/>
        <path class="cls-1" d="M497.25,113.87v2.99h7.9v2.09h-7.9v5.23h-2.76v-12.4h11.53v2.09h-8.77Z"/>
        <path class="cls-1" d="M518.84,117.78c-.62.62-1.4,1.03-2.3,1.2l3.51,5.19h-3.17l-3.28-5.12h-3.22v5.12h-2.76v-12.4h7.55c1.35,0,2.45.34,3.31,1.03.87.67,1.31,1.54,1.31,2.6,0,.94-.32,1.74-.94,2.37ZM514.39,113.83h-4.02v3.17h4.04c1.67,0,2.5-.55,2.5-1.67s-.89-1.51-2.52-1.51Z"/>
      </g>
    </g>
  </g>
</svg>